<svg width="299" height="155" viewBox="0 0 299 155" fill="none" xmlns="http://www.w3.org/2000/svg">
<path d="M8.17211 137.47H9.63838L9.9521 137.471H15.609L16.3422 137.366C16.9873 137.297 17.5475 137.157 18.0179 136.948L18.6475 136.843C23.2558 134.277 25.3158 130.262 24.8274 124.798C24.1475 116.698 19.8876 112.997 12.0491 113.695H11.7348H11.4206L8.17343 113.694L8.17211 137.47ZM0.421813 105.524H8.80183L10.1638 105.525H16.0298L16.3446 105.629H16.7635H17.1824L17.3919 105.734L19.0677 105.944C29.7002 109.454 34.3085 117.17 32.8937 129.093C30.7631 141.452 22.4527 146.968 7.96169 145.64H7.54275H7.01908H6.59967H6.076H5.65706H5.13339H3.77185H3.35244H1.57149H1.25729L0 145.64V145.221V143.335V142.498V141.66V141.345V140.926V139.041L0.000482173 138.727V136.632V135.794V135.375V133.489V133.176V132.861L0.00143921 129.614V128.881V128.567V128.147V126.262V124.796V124.482V123.958V123.644V123.225V122.911L0.00192139 120.816V119.036V118.721V117.464V116.103V115.684V113.903L0.00239625 113.589V112.332V111.179V110.656V109.294V108.876V107.095V106.78V105.524L0.421813 105.524Z" fill="white"/>
<path d="M51.6859 133.074H51.3723C50.9534 133.196 50.6039 133.266 50.3238 133.284H50.0102C49.9049 133.353 49.8007 133.388 49.6966 133.388L49.2765 133.493H48.9629L48.5439 133.597L47.9155 133.702C47.8102 133.771 47.706 133.806 47.6007 133.806L47.1818 133.911L46.8682 134.016C45.8891 134.261 45.1218 134.505 44.5628 134.749C43.8303 135.727 43.6208 136.739 43.9344 137.787C45.6796 140.231 48.1944 140.65 51.4765 139.044L52.3155 137.787L52.4197 137.368V136.949V136.635V136.111V135.797V135.378V135.064V132.969H52.1049L51.6859 133.074ZM58.602 119.353L58.7061 119.563C58.985 119.912 59.1944 120.261 59.3345 120.61C59.7008 121.151 59.9461 121.64 60.0682 122.077L60.067 122.496C60.2765 123.176 60.3818 123.77 60.3818 124.276L60.3806 134.54C60.3112 136.269 60.3806 137.701 60.5901 138.835C61.4447 139.725 62.4226 140.285 63.5226 140.511L63.3132 140.825L63.1037 141.349L62.8942 141.768L62.7901 142.082L62.6848 142.396L62.4753 142.711L62.0564 143.758L61.8469 144.072L61.7428 144.386L61.6374 144.701L61.5321 144.911L60.7996 146.482C57.6911 146.498 55.3522 145.521 53.7806 143.548C50.7954 146.516 47.0932 147.248 42.6764 145.747C38.6092 144.629 36.2344 142.15 35.5545 138.31C35.5892 132.672 38.2429 129.389 43.5155 128.465C43.7956 128.291 44.0745 128.185 44.3546 128.15H44.6682C44.7735 128.081 44.8776 128.046 44.983 128.046L45.2966 127.941L47.1818 127.627L48.0208 127.522L48.3345 127.417L50.1155 127.313C51.0587 127.174 51.826 127.138 52.4197 127.208C52.6818 123.316 50.5524 121.989 46.0303 123.227L45.7155 123.332L44.8776 123.437L44.1451 123.751L43.8303 123.856L42.783 124.17C42.2419 124.537 41.7524 124.782 41.3167 124.904C40.723 125.358 40.1293 125.672 39.5356 125.846L38.8031 124.484L38.5924 124.379L38.4883 124.065L38.2788 123.855L38.1735 123.541C37.7198 123.017 37.4062 122.529 37.2315 122.075C36.9526 121.813 36.7778 121.534 36.7084 121.237C36.2536 120.801 35.9747 120.347 35.8693 119.875L36.08 119.77L36.3936 119.561L36.6031 119.456C37.0747 119.142 37.4936 118.898 37.8599 118.723C38.1388 118.531 38.4189 118.426 38.6989 118.409L38.9072 118.199C39.5536 117.903 40.1126 117.694 40.5842 117.572L40.7936 117.362H41.1072C41.4388 117.153 41.7189 117.013 41.9451 116.943H42.2599C42.7315 116.698 43.1851 116.56 43.622 116.524C44.582 116.123 45.4893 115.913 46.3451 115.896L46.6587 115.791C51.4429 115.477 55.424 116.665 58.602 119.353Z" fill="white"/>
<path d="M80.5362 116.527H82.9457L82.9445 124.068C78.9119 123.544 76.0129 124.836 74.2498 127.943V128.257C73.9362 129.078 73.7961 129.881 73.8309 130.666V145.54H72.0498H71.6309H71.1066H69.7444H69.3255L67.5456 145.539H67.2308H65.974V145.225V144.701V144.387V143.968V143.654V141.559V140.825V138.731V137.893V137.055V136.217V135.379V133.284V132.97V132.656L65.9752 129.409V128.675V128.047V127.314V126.685V126.162V125.533V125.114V123.229V122.077V121.658V121.239V120.82V120.401V118.62V118.306V117.049H67.7563H68.1752L68.6995 117.049H70.0604H70.4794H72.2605H72.5753H73.8321V119.773C75.6826 117.905 77.7772 116.823 80.1173 116.527H80.5362Z" fill="white"/>
<path d="M97.8622 106.054V116.737H105.089V123.336H104.67H103.518H102.995H101.633H101.214H99.4326H99.119H97.861V137.581L98.0704 138.21C99.4146 139.571 101.544 139.711 104.461 138.629L104.564 139.048L105.088 140.723L105.194 141.038L105.298 141.875L105.612 142.609V142.923C105.769 143.359 105.875 143.744 105.926 144.075L106.241 145.123C101.894 146.484 97.7736 146.764 93.8799 145.96C92.6925 145.367 91.7493 144.668 91.0515 143.865C90.5452 142.958 90.1957 142.189 90.0041 141.561V140.827C89.8821 140.444 89.8473 140.095 89.8988 139.78V139.361V138.942L89.9 138.628V136.743V135.381V134.962V133.182V132.867V131.61V130.249V129.83V127.944V127.525V127.106V126.687V124.907V124.592V123.335H89.4811H89.0621H88.6432L86.8621 123.335H86.5485H85.2905V122.811V122.392L85.2917 121.868V120.507V120.088V118.307V117.993V116.736H85.7107H86.1296H86.5485L88.3296 116.737H89.1675H89.9012V114.956V114.537V112.757V111.604V111.185V109.405V109.09V107.834L90.3213 107.728L90.5296 107.624L91.4728 107.415C91.8738 107.241 92.2233 107.136 92.5202 107.101L93.8823 106.681L94.4066 106.577L95.4539 106.157C96.3432 105.984 97.077 105.774 97.6527 105.53C97.7928 105.687 97.8622 105.862 97.8622 106.054Z" fill="white"/>
<path d="M158.074 117.16L157.655 117.474L155.874 118.102L155.455 118.311L155.036 118.416C154.53 118.714 154.076 118.923 153.674 119.045L153.151 119.15L152.941 119.359H152.627L152.417 119.569H152.103L151.893 119.778H151.579L151.37 119.987L150.951 120.092L149.798 120.511C148.052 114.174 144.002 111.625 137.648 112.864C132.724 114.767 130.314 118.433 130.419 123.862C129.772 129.501 131.134 133.76 134.503 136.64C137.279 138.526 140.177 139.015 143.198 138.108C147.003 136.869 149.169 134.389 149.693 130.671C150.356 130.794 150.915 131.003 151.369 131.3C152.084 131.492 152.678 131.702 153.15 131.928L153.569 132.137L154.197 132.347L154.511 132.452L155.244 132.766L155.663 132.871L155.978 133.08C156.328 133.168 156.606 133.273 156.816 133.395L158.073 133.814C155.279 141.564 150.076 145.754 142.464 146.382C134.764 146.94 128.933 144.321 124.971 138.525C120.746 131.071 120.118 123.704 123.087 116.424C126.09 109.495 131.048 105.584 137.963 104.694C148.14 104.172 154.845 108.326 158.074 117.16Z" fill="white"/>
<path d="M163.668 105.638H164.61L165.973 105.639H169.744V118.941C173.2 116.287 176.797 115.66 180.532 117.056C183.885 118.523 186.155 120.827 187.342 123.97V124.389C187.778 125.506 187.987 126.554 187.97 127.531L187.969 145.652H186.188H185.769H185.245L183.884 145.651H183.464H181.684H181.369H180.112V144.918V144.604V144.289V141.042V140.728V140.414V139.052L180.113 138.528V137.9V137.586V135.491V134.863V134.548V134.129V133.815V133.292V132.139V130.987V130.568V130.254V129.521V129.206V128.892V128.578V127.845L180.008 127.216C179.782 126.745 179.642 126.326 179.589 125.959C178.245 124.092 176.5 123.324 174.353 123.654C172.745 124.126 171.453 124.929 170.476 126.064L170.371 126.482C170.04 127.129 169.83 127.722 169.743 128.263L169.742 145.65H167.961H167.542H167.019L165.655 145.65H165.238H163.457H163.142H161.885V145.335V144.917V144.602V144.183V142.298V141.46V140.622V140.308L161.886 138.213V137.794V137.271V136.851V136.327V134.966V134.547V132.767V132.452V131.195V130.777V130.253V128.891V128.472V126.691V126.377V125.12V124.387V123.549V122.711L161.887 121.873V121.559V121.245V117.998V117.264V116.637V115.903V115.275V114.751V114.122V113.704V111.818V110.666V110.247V109.828V109.409V108.99V107.209V106.895V105.638H163.668Z" fill="white"/>
<path d="M207.705 133.084H207.391C206.972 133.206 206.622 133.276 206.342 133.293H206.029C205.923 133.363 205.819 133.398 205.714 133.398L205.295 133.502H204.98L204.561 133.607L203.933 133.712C203.829 133.781 203.725 133.816 203.619 133.816L203.2 133.921L202.886 134.026C201.908 134.271 201.14 134.515 200.581 134.759C199.848 135.737 199.639 136.749 199.953 137.797C201.698 140.241 204.212 140.66 207.495 139.054L208.333 137.797L208.438 137.378V136.959V136.645V136.121V135.807V135.388V135.073V132.979H208.123L207.705 133.084ZM214.619 119.363L214.725 119.573C215.004 119.922 215.213 120.271 215.353 120.62C215.719 121.161 215.964 121.65 216.086 122.087V122.505C216.295 123.186 216.4 123.779 216.4 124.286L216.399 134.55C216.329 136.279 216.399 137.711 216.608 138.845C217.463 139.735 218.441 140.294 219.541 140.521L219.332 140.835L219.122 141.359L218.913 141.778L218.807 142.092L218.703 142.406L218.494 142.72L218.074 143.768L217.866 144.082L217.76 144.396L217.655 144.71L217.551 144.92L216.818 146.491C213.71 146.508 211.371 145.53 209.799 143.558C206.814 146.526 203.112 147.258 198.695 145.757C194.628 144.639 192.253 142.16 191.573 138.32C191.608 132.681 194.261 129.399 199.534 128.474C199.814 128.3 200.093 128.195 200.372 128.16H200.687C200.791 128.09 200.896 128.055 201.002 128.055L201.315 127.951L203.2 127.636L204.038 127.532L204.353 127.427L206.134 127.323C207.076 127.183 207.845 127.148 208.438 127.218C208.7 123.325 206.571 121.999 202.049 123.237L201.734 123.342L200.896 123.447L200.164 123.761L199.849 123.866L198.802 124.18C198.259 124.546 197.771 124.791 197.334 124.913C196.742 125.367 196.148 125.682 195.554 125.856L194.82 124.494L194.611 124.389L194.507 124.075L194.297 123.865L194.192 123.551C193.737 123.027 193.424 122.539 193.25 122.085C192.97 121.823 192.795 121.544 192.726 121.246C192.272 120.81 191.993 120.356 191.888 119.885L192.097 119.78L192.412 119.571L192.622 119.466C193.093 119.152 193.511 118.908 193.878 118.733C194.157 118.541 194.436 118.436 194.716 118.418L194.926 118.21C195.572 117.913 196.13 117.703 196.602 117.582L196.811 117.372H197.126C197.457 117.163 197.736 117.023 197.964 116.953H198.278C198.749 116.708 199.204 116.569 199.641 116.533C200.599 116.132 201.508 115.923 202.364 115.905L202.677 115.801C207.462 115.487 211.441 116.674 214.619 119.363Z" fill="white"/>
<path d="M236.554 116.536H238.964L238.963 124.078C234.929 123.554 232.032 124.846 230.268 127.953V128.266C229.955 129.088 229.815 129.89 229.849 130.676L229.848 145.549H228.068H227.648H227.125H225.763H225.344L223.563 145.549H223.249H221.991V145.234V144.711V144.396V143.978V143.663V141.569V140.835L221.993 138.741V137.902V137.065V136.227V135.389V133.294V132.979V132.665V129.419V128.685V128.057V127.324V126.695V126.171V125.543V125.124V123.239L221.994 122.087V121.668V121.248V120.83V120.411V118.63V118.316V117.059H223.775L224.194 117.059H224.717H226.079H226.498H228.279H228.594H229.851V119.783C231.701 117.915 233.796 116.833 236.135 116.536H236.554Z" fill="white"/>
<path d="M249.585 129.105C249.043 132.004 249.742 134.307 251.68 136.018C253.53 137.119 255.415 137.398 257.336 136.857C260.269 136.193 261.456 133.191 260.899 127.849C259.955 124.672 257.721 123.24 254.194 123.555C251.313 124.357 249.776 126.208 249.585 129.105ZM260.794 118.318C260.915 117.794 260.951 117.34 260.899 116.955H262.68L263.099 116.956H263.623H264.984H265.403H267.184H267.499H268.755L268.753 144.504L268.649 144.818C268.631 145.708 268.492 146.476 268.23 147.122C268.125 147.611 268.02 147.995 267.915 148.274L267.706 148.484C267.077 149.95 266.239 151.137 265.191 152.045L264.877 152.255L264.562 152.359C264.388 152.586 264.179 152.761 263.934 152.883L263.62 152.988C263.55 153.075 263.48 153.11 263.411 153.092L263.202 153.302L262.887 153.406L261.63 154.035C254.366 155.816 247.803 155.012 241.936 151.624L242.04 151.205L242.984 149.739L243.088 149.425L243.193 149.215L243.299 149.006L243.507 148.587L243.717 148.273C244.102 147.697 244.381 147.209 244.555 146.807L244.661 146.598L244.87 146.388C245.096 145.899 245.306 145.515 245.498 145.236C246.145 145.463 246.668 145.742 247.07 146.074C250.928 147.785 254.733 148.274 258.488 147.541C258.801 147.279 259.116 147.104 259.431 147.017C259.657 146.685 259.901 146.441 260.164 146.283L260.269 146.074L260.688 145.341L260.897 144.608V142.722C255.991 144.817 251.522 144.642 247.489 142.198C243.77 139.789 241.815 136.472 241.623 132.247C241.24 122.873 245.115 117.636 253.252 116.536C256.15 116.362 258.664 116.955 260.794 118.318Z" fill="white"/>
<path d="M280.111 127.955H281.472L282.834 127.956H291.529C290.742 124.813 288.821 123.103 285.767 122.823C282.554 123.33 280.669 125.04 280.111 127.955ZM298.546 128.795L298.861 130.156L298.86 130.889C299 132.129 299.035 133.141 298.965 133.927L298.651 133.822H298.337H296.241H295.927H295.613H292.365L291.633 133.822H291.004H290.271H289.642H289.118H288.49H288.071H286.185H285.033H284.614H284.195H283.776H283.357L281.576 133.821H281.261H280.004C280.389 136.859 281.96 138.674 284.718 139.268C288.157 139.792 291.02 138.919 293.309 136.65L294.146 137.593C294.478 137.82 294.723 138.064 294.879 138.326L295.09 138.43L295.194 138.64C295.542 138.902 295.822 139.146 296.032 139.373L296.241 139.688C296.363 139.758 296.433 139.827 296.451 139.897L296.66 140.001L296.869 140.211L296.974 140.42L297.183 140.526L297.288 140.735C297.638 140.997 297.917 141.242 298.126 141.468C294.826 145.658 290.287 147.228 284.508 146.181C277.438 144.976 273.422 140.681 272.462 133.297C271.835 123.939 275.676 118.285 283.987 116.329C292.525 116.208 297.377 120.362 298.546 128.795Z" fill="white"/>
<path d="M150 84C126.826 84 108 65.1401 108 42C108 18.8599 126.86 0 150 0C173.174 0 192 18.8599 192 42C192 65.1401 173.14 84 150 84Z" fill="#E51635"/>
<path d="M150.001 0.000152588C126.841 0.000152588 108 18.8419 108 42.0007C108 65.16 126.841 84.0014 150.001 84.0014C173.159 84.0014 192 65.16 192 42.0007C192 18.8419 173.159 0.000152588 150.001 0.000152588ZM150.001 1.97366C172.107 1.97366 190.027 19.8934 190.027 42.0007C190.027 64.1084 172.107 82.0279 150.001 82.0279C127.894 82.0279 109.972 64.1063 109.972 42.0007C109.972 19.8934 127.894 1.97366 150.001 1.97366Z" fill="white"/>
<path d="M130.269 23.6205H134.584C135.082 23.6205 135.546 23.6204 135.945 23.6536C136.343 23.6868 136.675 23.72 137.007 23.7863C137.339 23.8527 137.637 23.9522 137.903 24.0517C138.168 24.1513 138.467 24.284 138.766 24.4498C139.761 25.047 140.525 25.8432 141.056 26.938C141.587 27.9996 141.852 29.2603 141.852 30.6868C141.852 32.0138 141.62 33.175 141.155 34.1702C140.691 35.1655 140.027 35.9285 139.164 36.4593C138.069 37.1228 136.708 37.4546 135.015 37.4546H130.303V23.6205H130.269ZM135.015 34.8669C135.613 34.8669 136.077 34.8005 136.409 34.701C136.774 34.6015 137.106 34.4356 137.405 34.2034C138.334 33.4404 138.832 32.246 138.832 30.6205C138.832 27.8005 137.505 26.374 134.883 26.374H133.024V34.8669H135.015Z" fill="white"/>
<path d="M152.273 37.6869C152.174 37.7201 152.074 37.7201 152.008 37.7201C151.942 37.7201 151.875 37.7201 151.776 37.7201C151.012 37.7201 150.382 37.3883 149.851 36.6917C149.585 37.0566 149.253 37.3552 148.855 37.521C148.49 37.6869 147.992 37.7865 147.395 37.7865C146.864 37.7865 146.333 37.6869 145.868 37.521C145.403 37.3552 144.972 37.1229 144.64 36.8244C144.308 36.5258 144.01 36.1609 143.81 35.7628C143.611 35.3647 143.512 34.9334 143.512 34.4689C143.512 33.9713 143.611 33.54 143.844 33.1087C144.076 32.6774 144.375 32.3789 144.773 32.1466C145.204 31.8812 145.802 31.6822 146.565 31.5163C147.328 31.3504 148.258 31.2509 149.386 31.1846C149.386 30.8528 149.386 30.6206 149.386 30.4879C149.386 30.3883 149.353 30.2556 149.286 30.1561C149.187 29.9571 149.021 29.8244 148.789 29.6917C148.556 29.5921 148.291 29.5258 147.959 29.5258C147.494 29.5258 146.996 29.6253 146.432 29.7912C145.868 29.9571 145.337 30.2225 144.806 30.5542L143.545 28.6632C144.308 28.1656 145.038 27.8338 145.735 27.6016C146.432 27.4026 147.196 27.2699 148.025 27.2699C149.286 27.2699 150.282 27.5684 151.012 28.1324C151.211 28.2983 151.377 28.431 151.51 28.6301C151.643 28.7959 151.742 28.995 151.842 29.2272C151.942 29.4263 151.975 29.6917 152.008 29.9902C152.041 30.2888 152.074 30.6206 152.074 31.0187V34.2367C152.074 34.5021 152.074 34.7343 152.108 34.9334C152.141 35.0992 152.174 35.2651 152.24 35.3647C152.307 35.4974 152.406 35.5637 152.539 35.6301C152.672 35.6964 152.838 35.7296 153.037 35.7959L152.273 37.6869ZM149.486 33.1419C149.121 33.1751 148.789 33.2083 148.523 33.2414C148.224 33.2746 147.926 33.3078 147.627 33.3741C147.129 33.4737 146.731 33.6395 146.532 33.8054C146.3 33.9713 146.2 34.2367 146.2 34.5021C146.2 34.8338 146.333 35.1324 146.631 35.3315C146.93 35.5305 147.295 35.6632 147.727 35.6632C148.258 35.6632 148.689 35.5305 149.021 35.2651C149.353 34.9997 149.486 34.668 149.486 34.2035V33.1419Z" fill="white"/>
<path d="M154.928 37.4879V27.668H157.384L157.517 28.7628C157.915 28.3315 158.314 28.0329 158.679 27.8339C159.044 27.6348 159.442 27.5353 159.84 27.5353C160.006 27.5353 160.139 27.5353 160.272 27.5685C160.405 27.5685 160.604 27.6016 160.803 27.668V30.123C160.736 30.123 160.637 30.0898 160.571 30.0898C160.504 30.0898 160.471 30.0898 160.438 30.0898C159.94 30.0898 159.542 30.123 159.21 30.2225C158.878 30.322 158.579 30.4879 158.314 30.7201C158.148 30.8528 158.015 30.9855 157.915 31.1182C157.816 31.2509 157.716 31.4168 157.65 31.5827C157.584 31.7485 157.55 31.9808 157.517 32.213C157.484 32.4452 157.484 32.7438 157.484 33.0756V37.4215H154.928V37.4879Z" fill="white"/>
<path d="M169.067 37.0566C168.303 37.3552 167.441 37.521 166.478 37.521C165.283 37.521 164.487 37.2225 164.055 36.6585C163.956 36.5589 163.923 36.4594 163.856 36.3599C163.823 36.2604 163.757 36.1277 163.757 35.9618C163.723 35.8291 163.723 35.63 163.69 35.431C163.69 35.2319 163.657 34.9997 163.657 34.7011V29.5258H162.13V27.4025H163.657V24.2177L166.312 23.4879V27.4025H168.768V29.5258H166.312V33.5732C166.312 34.1703 166.412 34.6016 166.578 34.8007C166.744 34.9997 167.075 35.0992 167.573 35.0992C167.739 35.0992 167.905 35.0992 168.038 35.0661C168.171 35.0661 168.37 34.9997 168.635 34.9334L169.067 37.0566Z" fill="white"/>
<path d="M129.838 52.815C129.606 53.3458 129.407 53.7771 129.241 54.1088C129.075 54.4406 128.876 54.7391 128.643 55.0045C128.079 55.6681 127.382 56.1989 126.519 56.5638C125.656 56.9287 124.76 57.1278 123.764 57.1278C122.769 57.1278 121.873 56.9287 121.076 56.5638C120.247 56.1989 119.55 55.6681 118.952 55.0045C118.355 54.341 117.89 53.5448 117.558 52.6491C117.226 51.7202 117.06 50.7249 117.06 49.6633C117.06 48.5022 117.26 47.4406 117.691 46.4453C118.122 45.45 118.687 44.6538 119.417 44.0235C120.014 43.5259 120.678 43.1609 121.474 42.8955C122.271 42.6301 123.101 42.4974 123.93 42.4974C125.391 42.4974 126.652 42.8955 127.648 43.6586C128.643 44.4216 129.373 45.5496 129.838 46.9761L127.083 48.1041C126.951 47.706 126.818 47.3742 126.718 47.142C126.619 46.9098 126.453 46.6775 126.287 46.4453C126.021 46.0472 125.656 45.7486 125.192 45.5164C124.76 45.2842 124.262 45.1846 123.764 45.1846C123.267 45.1846 122.769 45.2842 122.271 45.5164C121.806 45.7154 121.375 46.0472 121.043 46.4453C120.711 46.8102 120.479 47.3079 120.28 47.9382C120.081 48.5685 120.014 49.2652 120.014 49.9951C120.014 51.4548 120.379 52.5827 121.143 53.379C121.474 53.7439 121.906 54.0093 122.371 54.2083C122.835 54.4074 123.333 54.5069 123.864 54.5069C124.395 54.5069 124.893 54.4074 125.358 54.1752C125.822 53.9761 126.154 53.6444 126.42 53.2463C126.552 53.0472 126.685 52.8481 126.751 52.6491C126.851 52.45 126.951 52.1515 127.05 51.7865L129.838 52.815Z" fill="white"/>
<path d="M138.367 56.7295V51.1892C138.367 50.5257 138.235 49.9949 137.936 49.63C137.637 49.2651 137.206 49.066 136.609 49.066C136.31 49.066 136.044 49.1324 135.746 49.2651C135.48 49.3978 135.248 49.5968 135.049 49.829C134.883 50.0281 134.75 50.2603 134.684 50.5589C134.617 50.8243 134.584 51.1892 134.584 51.6205V56.7627H132.029V42.8954H134.584V47.6395C135.082 47.3077 135.546 47.0423 135.912 46.9428C136.277 46.8101 136.708 46.7437 137.173 46.7437C137.803 46.7437 138.368 46.8764 138.899 47.1087C139.43 47.3741 139.861 47.7058 140.226 48.1371C140.392 48.3361 140.492 48.502 140.591 48.7011C140.691 48.867 140.757 49.066 140.823 49.2651C140.89 49.4641 140.923 49.6963 140.923 49.9617C140.956 50.2271 140.956 50.5589 140.956 50.9238V56.7295H138.367Z" fill="white"/>
<path d="M151.942 56.9286C151.842 56.9618 151.742 56.9618 151.676 56.9618C151.61 56.9618 151.543 56.9618 151.444 56.9618C150.68 56.9618 150.05 56.63 149.519 55.9333C149.253 56.2983 148.921 56.5968 148.523 56.7627C148.158 56.9286 147.66 57.0281 147.063 57.0281C146.532 57.0281 146.001 56.9286 145.536 56.7627C145.072 56.5968 144.64 56.3646 144.308 56.066C143.976 55.7675 143.678 55.4025 143.478 55.0044C143.279 54.6063 143.18 54.175 143.18 53.7106C143.18 53.213 143.279 52.7817 143.512 52.3504C143.744 51.9191 144.043 51.6205 144.441 51.3883C144.872 51.1229 145.47 50.9239 146.233 50.758C146.996 50.5921 147.926 50.4926 149.054 50.4262C149.054 50.0945 149.054 49.8622 149.054 49.7295C149.054 49.63 149.021 49.4973 148.955 49.3978C148.855 49.1987 148.689 49.066 148.457 48.9333C148.224 48.8338 147.959 48.7675 147.627 48.7675C147.162 48.7675 146.665 48.867 146.1 49.0329C145.536 49.1987 145.005 49.4641 144.474 49.7959L143.213 47.9049C143.976 47.4073 144.706 47.0755 145.403 46.8433C146.1 46.6442 146.864 46.5115 147.693 46.5115C148.955 46.5115 149.95 46.8101 150.68 47.3741C150.88 47.54 151.045 47.6727 151.178 47.8717C151.311 48.0376 151.411 48.2367 151.51 48.4689C151.61 48.6679 151.643 48.9333 151.676 49.2319C151.709 49.5305 151.742 49.8622 151.742 50.2604V53.4784C151.742 53.7438 151.742 53.976 151.776 54.175C151.809 54.3409 151.842 54.5068 151.908 54.6063C151.975 54.739 152.074 54.8054 152.207 54.8717C152.34 54.9381 152.506 54.9713 152.705 55.0376L151.942 56.9286ZM149.121 52.3504C148.755 52.3836 148.424 52.4168 148.158 52.4499C147.859 52.4831 147.561 52.5163 147.262 52.5826C146.764 52.6822 146.366 52.848 146.167 53.0139C145.934 53.1798 145.835 53.4452 145.835 53.7106C145.835 54.0423 145.968 54.3409 146.266 54.54C146.565 54.739 146.93 54.8717 147.362 54.8717C147.893 54.8717 148.324 54.739 148.656 54.4736C148.988 54.2082 149.121 53.8765 149.121 53.412V52.3504Z" fill="white"/>
<path d="M154.563 56.7294V46.9095H157.019L157.152 48.0043C157.55 47.573 157.949 47.2744 158.314 47.0753C158.679 46.8763 159.077 46.7768 159.475 46.7768C159.641 46.7768 159.774 46.7768 159.907 46.8099C160.04 46.8099 160.239 46.8431 160.438 46.9095V49.3644C160.371 49.3644 160.272 49.3313 160.205 49.3313C160.139 49.3313 160.106 49.3313 160.073 49.3313C159.575 49.3313 159.177 49.3644 158.845 49.464C158.513 49.5635 158.214 49.7294 157.949 49.9616C157.783 50.0943 157.65 50.227 157.55 50.3597C157.451 50.4924 157.351 50.6583 157.285 50.8242C157.218 50.99 157.185 51.2223 157.152 51.4545C157.119 51.6867 157.119 51.9853 157.119 52.317V56.663H154.563V56.7294Z" fill="white"/>
<path d="M170.959 54.8385C170.959 55.2034 170.959 55.5352 170.959 55.7674C170.959 56.0328 170.925 56.2318 170.925 56.3977C170.925 56.5636 170.892 56.7295 170.859 56.8622C170.826 56.9949 170.793 57.1607 170.759 57.2935C170.593 57.7911 170.394 58.1892 170.129 58.4878C169.863 58.7863 169.498 59.0518 169.034 59.2508C168.635 59.4167 168.204 59.5494 167.706 59.6489C167.208 59.7484 166.71 59.7816 166.246 59.7816C165.881 59.7816 165.482 59.7484 165.084 59.6821C164.686 59.6157 164.288 59.5494 163.923 59.4498C163.557 59.3503 163.159 59.2176 162.827 59.0849C162.462 58.9522 162.13 58.7863 161.865 58.5873L162.96 56.5636C163.591 56.8954 164.188 57.1608 164.719 57.3266C165.283 57.4925 165.847 57.5589 166.412 57.5589C167.772 57.5589 168.469 56.9285 168.469 55.701C168.469 55.6679 168.469 55.6015 168.469 55.502C168.469 55.4025 168.469 55.3361 168.436 55.2034C167.938 55.4688 167.507 55.6679 167.142 55.8006C166.777 55.9001 166.412 55.9664 165.98 55.9664C165.383 55.9664 164.819 55.8337 164.288 55.6015C163.757 55.3693 163.325 55.0375 162.927 54.6394C162.562 54.2413 162.263 53.7437 162.031 53.1797C161.832 52.6157 161.699 52.0186 161.699 51.3551C161.699 50.4593 161.865 49.6631 162.23 48.9664C162.595 48.2698 163.126 47.739 163.823 47.3077C164.188 47.0754 164.553 46.9096 164.985 46.81C165.383 46.6773 165.814 46.6442 166.213 46.6442C167.042 46.6442 167.772 46.8764 168.403 47.3077L168.569 46.8432H171.025V54.8385H170.959ZM166.445 48.9001C165.781 48.9001 165.25 49.1323 164.852 49.6299C164.454 50.1276 164.254 50.7579 164.254 51.5209C164.254 52.2508 164.454 52.848 164.819 53.2461C165.184 53.6773 165.715 53.8764 166.379 53.8764C167.739 53.8764 168.403 53.0138 168.403 51.3219C168.403 50.7911 168.337 50.393 168.237 50.0612C168.137 49.7626 167.938 49.4972 167.706 49.2982C167.308 49.066 166.91 48.9001 166.445 48.9001Z" fill="white"/>
<path d="M181.977 55.2698C180.948 56.3977 179.687 56.9617 178.16 56.9617C177.43 56.9617 176.733 56.829 176.103 56.5636C175.472 56.2982 174.941 55.9333 174.476 55.4688C174.012 55.0044 173.647 54.4404 173.414 53.81C173.149 53.1797 173.016 52.4499 173.016 51.6868C173.016 50.957 173.116 50.2935 173.348 49.6631C173.58 49.0328 173.879 48.502 174.311 48.0707C174.709 47.6063 175.207 47.2745 175.771 47.0091C176.335 46.7437 176.966 46.6442 177.629 46.6442C178.293 46.6442 178.924 46.7769 179.488 47.0423C180.052 47.3077 180.55 47.6726 180.948 48.1702C181.346 48.6347 181.678 49.2318 181.911 49.8622C182.143 50.5257 182.243 51.2555 182.243 52.0186C182.243 52.0849 182.243 52.1845 182.243 52.284C182.243 52.3835 182.243 52.5162 182.209 52.6489H175.671C175.671 52.9143 175.704 53.1465 175.771 53.3456C175.837 53.5115 175.904 53.6773 176.036 53.8432C176.269 54.1086 176.534 54.3408 176.899 54.5067C177.264 54.6726 177.663 54.739 178.061 54.739C178.891 54.739 179.687 54.4072 180.351 53.7769L181.977 55.2698ZM179.654 50.7579C179.521 49.4309 178.857 48.7342 177.696 48.7342C177.364 48.7342 177.032 48.8006 176.733 48.9664C176.435 49.0991 176.202 49.2982 176.036 49.5636C175.937 49.7295 175.837 49.8622 175.771 50.0612C175.704 50.2271 175.671 50.4593 175.638 50.7911H179.654V50.7579Z" fill="white"/>
</svg>
